<svg width="22" height="23" viewBox="0 0 22 23" fill="none" xmlns="http://www.w3.org/2000/svg">
<path d="M21.5384 6.72656C22.1522 6.16853 22.1522 5.26228 21.5384 4.70424L16.8241 0.418527C16.2103 -0.139509 15.2134 -0.139509 14.5996 0.418527C13.9857 0.976562 13.9857 1.88281 14.5996 2.44085L16.6326 4.28906H1.57143C0.702232 4.28906 0 4.92746 0 5.71763C0 6.50781 0.702232 7.14621 1.57143 7.14621H16.6326L14.5996 8.99442C13.9857 9.55245 13.9857 10.4587 14.5996 11.0167C15.2134 11.5748 16.2103 11.5748 16.8241 11.0167L21.5384 6.73103V6.72656ZM5.17098 22.4408C5.78482 22.9989 6.7817 22.9989 7.39554 22.4408C8.00938 21.8828 8.00938 20.9766 7.39554 20.4185L5.36741 18.5748H20.4286C21.2978 18.5748 22 17.9364 22 17.1462C22 16.356 21.2978 15.7176 20.4286 15.7176H5.36741L7.40045 13.8694C8.01429 13.3114 8.01429 12.4051 7.40045 11.8471C6.78661 11.2891 5.78973 11.2891 5.17589 11.8471L0.461607 16.1328C-0.152232 16.6908 -0.152232 17.5971 0.461607 18.1551L5.17589 22.4408H5.17098Z" fill="#A5AAAF"/>
</svg>
